<svg xmlns="http://www.w3.org/2000/svg" version="1.1" xmlns:xlink="http://www.w3.org/1999/xlink" xmlns:svgjs="http://svgjs.dev/svgjs" width="100%" height="100%" viewBox="0 0 1000 600"><rect width="1000" height="600" x="0" y="0" fill="white"/><g><rect width="333.3333333333333" height="333.3333333333333" rx="13.333333333333334" ry="13.333333333333334" y="204.57867226497535" fill="#5a1a01" transform="matrix(0.6854707680821489,0,0,0.6854707680821489,0,45.52217631415883)" x="182.3565216064453"/><path d="M247.4422049829996 446.2453411854215L230.18452119721456 446.2453411854215L230.18452119721456 296.2453362254131L322.9741223742095 296.2453362254131L322.9741223742095 310.93209794037057L247.4422049829996 310.93209794037057L247.4422049829996 362.61649681252476L318.7188030845639 362.61649681252476L318.7188030845639 377.3032585274823L247.4422049829996 377.3032585274823L247.4422049829996 446.2453411854215ZM467.8618340209631 446.2453411854215L450.1904386375736 446.2453411854215L433.61242390499586 407.74061177980866L355.3027286441562 407.74061177980866L338.69516308317804 446.2453411854215L320.8464627293867 446.2453411854215L386.80391171889397 296.2453362254131L401.9043850314559 296.2453362254131L467.8618340209631 446.2453411854215ZM394.457576274576 316.4581028512298L361.47885177982243 393.26070586365336L427.4363007693297 393.26070586365336L394.457576274576 316.4581028512298Z " fill="white" transform="matrix(0.6854707680821489,0,0,0.6854707680821489,0,45.52217631415883)"/><path d="M612.7708290393202 415.7368675223691L599.0231825286278 415.7368675223691L599.0231825286278 296.2453372342284L672.9403230141995 296.2453372342284L672.9403230141995 307.9449610626771L612.7708290393202 307.9449610626771L612.7708290393202 349.11727912295254L669.5504923677274 349.11727912295254L669.5504923677274 360.81690295140135L612.7708290393202 360.81690295140135L612.7708290393202 415.7368675223691ZM723.9525661454842 416.91389205239415Q712.2529423170355 416.91389205239415 703.3546368700462 411.6643626484825Q694.4563314230571 406.4148332445709 689.6305308499545 396.66907013596364Q684.8047302768518 386.92330702735643 684.8047302768518 374.0466586688826L684.8047302768518 374.0466586688826Q684.8047302768518 361.1700103104088 689.6305308499545 351.4242472018016Q694.4563314230571 341.6784840931944 703.3546368700462 336.40541419868225Q712.2529423170355 331.15588479477066 723.9525661454842 331.15588479477066L723.9525661454842 331.15588479477066Q735.6521899739331 331.15588479477066 744.6211168927238 336.40541419868225Q753.6135843021149 341.6784840931944 758.4393848752176 351.4242472018016Q763.2651854483203 361.1700103104088 763.2651854483203 374.0466586688826L763.2651854483203 374.0466586688826Q763.2651854483203 386.92330702735643 758.4393848752176 396.66907013596364Q753.6135843021149 406.4148332445709 744.6211168927238 411.6643626484825Q735.6521899739331 416.91389205239415 723.9525661454842 416.91389205239415L723.9525661454842 416.91389205239415ZM723.9525661454842 405.5673755829529Q736.1465402765435 405.5673755829529 742.6672561728823 397.51652779758166Q749.2115125598215 389.4656800122105 749.2115125598215 374.0466586688826L749.2115125598215 374.0466586688826Q749.2115125598215 358.9572041939618 742.5966347010807 350.7415729743871Q735.9817568423401 342.52594175481244 723.9525661454842 342.52594175481244L723.9525661454842 342.52594175481244Q711.9233754486285 342.52594175481244 705.3084975898879 350.7415729743871Q698.6936197311471 358.9572041939618 698.6936197311471 374.0466586688826L698.6936197311471 374.0466586688826Q698.6936197311471 389.300896578007 705.2143356274859 397.4223658351797Q711.7350515238244 405.5673755829529 723.9525661454842 405.5673755829529L723.9525661454842 405.5673755829529ZM818.0203665850844 416.91389205239415Q806.3207427566357 416.91389205239415 797.4224373096464 411.6643626484825Q788.5241318626573 406.4148332445709 783.6983312895546 396.66907013596364Q778.8725307164519 386.92330702735643 778.8725307164519 374.0466586688826L778.8725307164519 374.0466586688826Q778.8725307164519 361.1700103104088 783.6983312895546 351.4242472018016Q788.5241318626573 341.6784840931944 797.4224373096464 336.40541419868225Q806.3207427566357 331.15588479477066 818.0203665850844 331.15588479477066L818.0203665850844 331.15588479477066Q829.7199904135333 331.15588479477066 838.688917332324 336.40541419868225Q847.6813847417151 341.6784840931944 852.5071853148178 351.4242472018016Q857.3329858879202 361.1700103104088 857.3329858879202 374.0466586688826L857.3329858879202 374.0466586688826Q857.3329858879202 386.92330702735643 852.5071853148178 396.66907013596364Q847.6813847417151 406.4148332445709 838.688917332324 411.6643626484825Q829.7199904135333 416.91389205239415 818.0203665850844 416.91389205239415L818.0203665850844 416.91389205239415ZM818.0203665850844 405.5673755829529Q830.2143407161437 405.5673755829529 836.7350566124825 397.51652779758166Q843.2793129994214 389.4656800122105 843.2793129994214 374.0466586688826L843.2793129994214 374.0466586688826Q843.2793129994214 358.9572041939618 836.6644351406809 350.7415729743871Q830.0495572819403 342.52594175481244 818.0203665850844 342.52594175481244L818.0203665850844 342.52594175481244Q805.9911758882287 342.52594175481244 799.3762980294881 350.7415729743871Q792.7614201707473 358.9572041939618 792.7614201707473 374.0466586688826L792.7614201707473 374.0466586688826Q792.7614201707473 389.300896578007 799.2821360670861 397.4223658351797Q805.8028519634246 405.5673755829529 818.0203665850844 405.5673755829529L818.0203665850844 405.5673755829529ZM937.3471134390217 296.2453372342284L951.0712194591134 296.2453372342284L951.0712194591134 415.7368675223691L937.3471134390217 415.7368675223691L937.3471134390217 400.64741304744825Q933.6041754335421 408.4393154362139 926.4007853097891 412.67660374430403Q919.1973951860358 416.91389205239415 909.5457940398306 416.91389205239415L909.5457940398306 416.91389205239415Q898.6936278729999 416.91389205239415 890.383834691023 411.499579214279Q882.0740415090464 406.0852663761639 877.5071863325494 396.33950326755667Q872.9403311560524 386.5937401589494 872.9403311560524 373.69355130987515L872.9403311560524 373.69355130987515Q872.9403311560524 360.98168638560486 877.5071863325494 351.3300852393996Q882.0740415090464 341.6784840931944 890.383834691023 336.40541419868225Q898.6936278729999 331.15588479477066 909.5457940398306 331.15588479477066L909.5457940398306 331.15588479477066Q919.1973951860358 331.15588479477066 926.4007853097891 335.3931731028607Q933.6041754335421 339.63046141095083 937.3471134390217 347.4223637997165L937.3471134390217 347.4223637997165L937.3471134390217 296.2453372342284ZM912.2529504588882 405.5673755829529Q924.282141155744 405.5673755829529 930.8028570520825 397.35174436337815Q937.3471134390217 389.13611314380347 937.3471134390217 374.0466586688826L937.3471134390217 374.0466586688826Q937.3471134390217 358.9572041939618 930.8028570520825 350.8121944461886Q924.282141155744 342.6907251890159 912.2529504588882 342.6907251890159L912.2529504588882 342.6907251890159Q900.2237597620323 342.6907251890159 893.5147199408897 350.8121944461886Q886.8292206103475 358.9572041939618 886.8292206103475 373.69355130987515L886.8292206103475 373.69355130987515Q886.8292206103475 388.783005784796 893.5147199408897 397.1869609291747Q900.2237597620323 405.5673755829529 912.2529504588882 405.5673755829529L912.2529504588882 405.5673755829529ZM1083.9572888989392 415.7368675223691L1069.88007551984 415.7368675223691L1056.6503198023584 385.06360826991687L994.2915602016325 385.06360826991687L981.0618044841511 415.7368675223691L966.8198076708485 415.7368675223691L1019.3621826911657 296.2453372342284L1031.414913878622 296.2453372342284L1083.9572888989392 415.7368675223691ZM1025.482710247296 312.3470328049707L999.2115227371372 373.52876787567163L1051.7538977574545 373.52876787567163L1025.482710247296 312.3470328049707ZM1141.2313025299568 331.15588479477066Q1152.0834686967878 331.15588479477066 1160.3932618787644 336.5937381234863Q1168.703055060741 342.0080509616014 1173.269910237238 351.75381407020865Q1177.836765413735 361.49957717881585 1177.836765413735 374.37622553728966L1177.836765413735 374.37622553728966Q1177.836765413735 387.25287389576346 1173.269910237238 396.83385357016715Q1168.703055060741 406.4148332445709 1160.463883350566 411.6643626484825Q1152.2482521309912 416.91389205239415 1141.2313025299568 416.91389205239415L1141.2313025299568 416.91389205239415Q1131.5797013837519 416.91389205239415 1124.3763112599986 412.67660374430403Q1117.1729211362453 408.4393154362139 1113.4299831307658 400.64741304744825L1113.4299831307658 400.64741304744825L1113.4299831307658 446.2453433406178L1099.705877110674 446.2453433406178L1099.705877110674 333.2039074770142L1113.4299831307658 333.2039074770142L1113.4299831307658 347.4223637997165Q1117.1729211362453 339.63046141095083 1124.3763112599986 335.3931731028607Q1131.5797013837519 331.15588479477066 1141.2313025299568 331.15588479477066L1141.2313025299568 331.15588479477066ZM1138.5241461108994 405.5673755829529Q1150.553336807755 405.5673755829529 1157.1682146664957 397.4223658351797Q1163.7830925252365 389.300896578007 1163.7830925252365 374.37622553728966L1163.7830925252365 374.37622553728966Q1163.7830925252365 359.4750949871728 1157.1682146664957 351.0711398427941Q1150.553336807755 342.6907251890159 1138.5241461108994 342.6907251890159L1138.5241461108994 342.6907251890159Q1126.4949554140435 342.6907251890159 1119.974239517705 350.8121944461886Q1113.4299831307658 358.9572041939618 1113.4299831307658 374.0466586688826L1113.4299831307658 374.0466586688826Q1113.4299831307658 389.13611314380347 1119.974239517705 397.35174436337815Q1126.4949554140435 405.5673755829529 1138.5241461108994 405.5673755829529L1138.5241461108994 405.5673755829529ZM1239.889498636655 331.15588479477066Q1250.7181243128853 331.15588479477066 1259.0279174948619 336.5937381234863Q1267.3377106768385 342.0080509616014 1271.9045658533355 351.75381407020865Q1276.4949615204332 361.49957717881585 1276.4949615204332 374.37622553728966L1276.4949615204332 374.37622553728966Q1276.4949615204332 387.25287389576346 1271.9045658533355 396.83385357016715Q1267.3377106768385 406.4148332445709 1259.1220794572637 411.6643626484825Q1250.906448237689 416.91389205239415 1239.889498636655 416.91389205239415L1239.889498636655 416.91389205239415Q1230.2143569998489 416.91389205239415 1223.010966876096 412.67660374430403Q1215.8075767523428 408.4393154362139 1212.0881792374635 400.64741304744825L1212.0881792374635 400.64741304744825L1212.0881792374635 446.2453433406178L1198.3640732173717 446.2453433406178L1198.3640732173717 333.2039074770142L1212.0881792374635 333.2039074770142L1212.0881792374635 347.4223637997165Q1215.8075767523428 339.63046141095083 1223.010966876096 335.3931731028607Q1230.2143569998489 331.15588479477066 1239.889498636655 331.15588479477066L1239.889498636655 331.15588479477066ZM1237.1588017269964 405.5673755829529Q1249.211532914453 405.5673755829529 1255.8028702825932 397.4223658351797Q1262.417748141334 389.300896578007 1262.417748141334 374.37622553728966L1262.417748141334 374.37622553728966Q1262.417748141334 359.4750949871728 1255.8028702825932 351.0711398427941Q1249.211532914453 342.6907251890159 1237.1588017269964 342.6907251890159L1237.1588017269964 342.6907251890159Q1225.129611030141 342.6907251890159 1218.6088951338024 350.8121944461886Q1212.0881792374635 358.9572041939618 1212.0881792374635 374.0466586688826L1212.0881792374635 374.0466586688826Q1212.0881792374635 389.13611314380347 1218.6088951338024 397.35174436337815Q1225.129611030141 405.5673755829529 1237.1588017269964 405.5673755829529L1237.1588017269964 405.5673755829529Z " fill="#5a1a01" transform="matrix(0.6854707680821489,0,0,0.6854707680821489,0,45.52217631415883)"/></g></svg>